<svg id="Capa_1" enable-background="new 0 0 501 501" height="512" viewBox="0 0 501 501" width="512" xmlns="http://www.w3.org/2000/svg"><path d="m74.519 426.458c-42.931-44.314-69.275-104.794-69.017-171.427.521-134.674 110.759-244.265 245.434-244.031 135.109.236 244.564 109.836 244.564 245 0 66.245-26.292 126.35-69.01 170.448-.994 1.026-2.471 1.416-3.848 1.035-52.343-14.49-110.662-22.576-172.142-22.576-61.485 0-119.809 8.087-172.155 22.579-1.369.379-2.838-.008-3.826-1.028z" fill="#7ecd00"/><path d="m350.5 330h-200c-8.284 0-15-6.716-15-15v-215h230v215c0 8.284-6.716 15-15 15z" fill="#ee4424"/><path d="m350.5 330h-156v-230h171v215c0 8.284-6.716 15-15 15z" fill="#fc6930"/><path d="m156.526 360.898c34.456-12.51 59.691-42.438 63.479-78.294h60.988c3.788 35.857 29.023 65.785 63.479 78.294-28.939 12.029-60.681 18.67-93.974 18.67s-65.033-6.64-93.972-18.67z" fill="#e3ac6e"/><path d="m351.648 363.211c-30.834 13.995-65.081 21.789-101.148 21.789-14.065 0-27.854-1.186-41.271-3.461 20.671-13.501 36.727-33.678 45.791-57.416-17.649 1.051-35.592-4.045-50.394-15.289-39.808-30.239-66.814-88.949-66.814-144.171 0-74.538 49.202-116.575 112.676-125.231 63.473 8.656 112.676 50.693 112.676 125.231 0 55.223-27.006 113.932-66.814 144.171-2.067 1.57-4.195 3.02-6.375 4.35 11.977 23.911 34.365 42.307 61.673 50.027z" fill="#eabe8d"/><path d="m296.349 308.834c-.121.092-.242.184-.364.275-1.996 1.498-3.876 2.965-6.021 4.082-18.834 9.809-42.766 4.924-56.556-12.103-20.908-25.815-48.605-72.836-45.516-138.387 2.83-60.053 25.784-101.262 64.1-123.057 62.745 9.111 111.171 51.071 111.171 125.019 0 55.222-27.006 113.932-66.814 144.171z" fill="#f3d6ac"/><path d="m235 221c0-4.143 3.358-7.5 7.5-7.5h16c4.142 0 7.5 3.357 7.5 7.5s-3.358 7.5-7.5 7.5h-16c-4.142 0-7.5-3.357-7.5-7.5zm44.864 33.71c-2.094-3.574-6.69-4.771-10.262-2.681-11.032 6.463-29.671 6.463-40.703 0-3.573-2.094-8.167-.893-10.262 2.681-2.093 3.574-.893 8.169 2.681 10.263 7.832 4.587 17.882 6.881 27.933 6.881s20.101-2.294 27.933-6.881c3.573-2.094 4.773-6.688 2.68-10.263z" fill="#eabe8d"/><path d="m216.75 185c0 8.284-6.716 15-15 15s-15-6.716-15-15 6.716-15 15-15 15 6.716 15 15zm80-15c-8.284 0-15 6.716-15 15s6.716 15 15 15 15-6.716 15-15-6.716-15-15-15z" fill="#7d402d"/><path d="m219.25 177.5c0 4.142-3.358 7.5-7.5 7.5s-7.5-3.358-7.5-7.5 3.358-7.5 7.5-7.5 7.5 3.358 7.5 7.5zm87.5-7.5c-4.142 0-7.5 3.358-7.5 7.5s3.358 7.5 7.5 7.5 7.5-3.358 7.5-7.5-3.358-7.5-7.5-7.5z" fill="#fff5f5"/><path d="m365.5 122v33c0 1.105-.895 2-2 2h-.298c-5.317 0-27.922-33.222-38.744-42.823-.017-.015-.034-.03-.051-.045-2.813-2.492-6.914-2.851-10.171-.976-14.611 8.413-37.724 13.844-63.736 13.844-26.014 0-49.127-5.432-63.738-13.845-3.264-1.879-7.374-1.522-10.193.976-.017.015-.034.03-.051.045-10.822 9.602-33.428 42.824-38.744 42.824h-.274c-1.105 0-2-.895-2-2v-33c0-63.513 51.487-115 115-115 63.513 0 115 51.487 115 115z" fill="#ee4424"/><path d="m324.457 114.177c-.017-.015-.034-.03-.051-.045-2.813-2.492-6.914-2.851-10.171-.976-14.61 8.412-37.723 13.844-63.735 13.844-21.762 0-41.289-3.714-55.711-9.882 10.587-50.243 32.726-86.848 67.296-109.542 58.072 5.81 103.415 54.821 103.415 114.424v33c0 1.104-.895 2-2 2h-.298c-5.317 0-27.922-33.222-38.745-42.823z" fill="#fc6930"/><path d="m426.5 409.365v17.072c-44.537 45.981-106.93 74.563-176 74.563s-131.464-28.582-176-74.563v-17.072c0-23.525 20.47-42.299 45.503-42.184.166 0 .331.001.497.001 27.895 0 53.121-10.734 71.259-28.045l58.741 30.863 58.741-30.863c18.138 17.312 43.365 28.045 71.259 28.045.166 0 .332-.001.498-.001 25.032-.115 45.502 18.659 45.502 42.184z" fill="#056099"/><path d="m250.5 501c-50.82 0-98.025-15.473-137.163-41.965-3.215-30.367 17.739-57.101 46.538-60.024.191-.02.381-.04.572-.06 29.023-3.097 54.326-17.267 72.569-38.136l17.484 9.185 58.741-30.863c18.138 17.312 43.365 28.045 71.259 28.045.166 0 .332-.001.498-.001 25.033-.115 45.502 18.659 45.502 42.184v17.072c-44.537 45.981-106.93 74.563-176 74.563z" fill="#0571b3"/><path d="m325.267 351.726-44.026 61.637c-2.17 3.038-6.782 2.712-8.505-.6l-19.601-36.071c-1.136-2.09-4.136-2.09-5.272 0l-19.601 36.071c-1.722 3.312-6.335 3.637-8.505.6l-44.026-61.637c-.669-.937-.412-2.242.562-2.855l15.465-9.733 54.151 27.975c2.879 1.487 6.301 1.487 9.18 0l54.151-27.975 15.465 9.733c.974.612 1.231 1.918.562 2.855z" fill="#fff5f5"/><path d="m373 122.5v59.571c0 67.547-54.953 122.5-122.5 122.5-.417 0-.834-.003-1.25-.007v-15c.416.004.833.007 1.25.007 59.275 0 107.5-48.225 107.5-107.5v-59.571c0-59.275-48.225-107.5-107.5-107.5s-107.5 48.225-107.5 107.5v33h-15v-33c0-67.547 54.953-122.5 122.5-122.5s122.5 54.953 122.5 122.5z" fill="#0571b3"/><path d="m145.5 174.836v19.869c0 5.487-4.448 9.935-9.935 9.935h-14.902c-10.973 0-19.869-8.896-19.869-19.869 0-10.973 8.896-19.869 19.869-19.869h14.902c5.487 0 9.935 4.448 9.935 9.934zm219.934 29.804h14.902c10.973 0 19.869-8.896 19.869-19.869 0-10.973-8.896-19.869-19.869-19.869h-14.902c-5.487 0-9.935 4.448-9.935 9.935v19.869c.001 5.486 4.449 9.934 9.935 9.934zm-114.934 75.36c-13.807 0-25 6.716-25 15s11.193 15 25 15 25-6.716 25-15-11.193-15-25-15z" fill="#012d4e"/><path d="m145.5 159.935v49.673c0 5.487-4.448 9.935-9.935 9.935-13.717 0-24.836-11.12-24.836-24.836v-19.869c0-13.717 11.12-24.836 24.836-24.836 5.487-.002 9.935 4.446 9.935 9.933zm219.934 59.607c13.717 0 24.836-11.12 24.836-24.836v-19.869c0-13.717-11.12-24.836-24.836-24.836-5.487 0-9.935 4.448-9.935 9.935v49.673c.001 5.485 4.449 9.933 9.935 9.933z" fill="#059bc3"/><path d="m225.835 292.54c1.956-7.114 12.255-12.54 24.665-12.54s22.709 5.426 24.665 12.54c-6.285 2.753-15.014 4.46-24.665 4.46s-18.38-1.707-24.665-4.46zm-80.335-82.933v-49.673c0-5.487-4.448-9.935-9.935-9.935-1.854 0-3.66.203-5.397.589-2.858 4.046-4.537 8.983-4.537 14.313v39.738c0 5.33 1.679 10.268 4.537 14.313 1.738.385 3.544.589 5.397.589 5.487.001 9.935-4.447 9.935-9.934zm219.934-59.607c1.854 0 3.66.203 5.397.589 2.858 4.046 4.537 8.983 4.537 14.313v39.738c0 5.33-1.679 10.268-4.537 14.313-1.738.385-3.544.589-5.397.589-5.487 0-9.935-4.448-9.935-9.935v-49.673c.001-5.486 4.449-9.934 9.935-9.934z" fill="#013f69"/></svg>