<svg enable-background="new 0 0 140 140" height="512" viewBox="0 0 140 140" width="512" xmlns="http://www.w3.org/2000/svg"><circle cx="70" cy="70" fill="#e05b49" r="64"/><path d="m106.8118973 36.9216805c-.9100342-1.3099976-1.2399902-.0900269-1.2399902-.0900269s-.3800049-2.039978-5.8300171-1.2600098c-5.3800049.7700195-8.1500244 7.6900024-8.7999878 11.8699951l-12.4700318-12.4799804c-1.1999512-1.2199707-2.8899536-2.2700195-3.8399658-2.1699829-1.2000122.1199951-.9800415-.4799805-2.2999878-.4799805-1.3200073 0-1.5400391.539978-2.4900513.7699585-.9499512.2399902-2.5-.7699585-4.3599854.5400391-1.8699951 1.3099976-1.7999878 1.5499878-2.5499878 2.3800049-.7399902.8299561.789978 1.6699829-1.8699951 2.6199951-2.6600342.9499512-.960022 5.9499512-.960022 5.9499512s-1.0599976 1.6700439-.2999878 2.8000488c.25.3699951.1699829 1.5099487.2399902 2.5699463l-12.8299559-12.8399659-.0100098.0200195c-.9500122-.8900146-2.4000244-.2900391-2.4000244-.2900391s-.3800049-2.039978-5.8200073-1.2600098c-5.4500122.7800293-8.2299824 7.8600464-8.830019 12.0200195-.1299438.8599854-.1399536 1.6900024-.0699463 2.4500122.1699829 1.8999634-1.6500244 3.0899658-3.2200317 2.7000122l-2.1900024-2.1900024s.4199829 10.1799927 5.7000122 10.8599854l-3.8300171 1.75c-.9500122.5200195-1.7999878 1.2000084-2.5299683 1.9999962-1.6199951 1.789978-2.5200195 4.1199951-2.5200195 6.539978v7.5200195c0 .8900146.3400269 1.7000122.8900146 2.3099976l-.0100098.0100098.0999756.0899658c.0200195.0300293.0500488.0599976.0800171.0800171l52.114563 52.100647c33.165041-2.3926391 59.3335514-30.0372924 59.3335514-63.8123169 0-2.090332-.1079712-4.1550903-.303833-6.194088z" opacity=".1"/><path d="m95.779282 49.194302h9.460316v21.882759h-9.460316z" fill="#f7be56"/><path d="m116.2371674 65.1595001c-.7273026-.8003006-1.5830994-1.475071-2.5324326-1.9949722l-8.4651413-3.9707642c-.000885.0004616-.0009308.0005074-.0018082.0010185-.092514.9847221-.5344467 1.9284019-1.2883835 2.5676842-1.9489212 1.6523552-4.8856812 1.6652794-6.8498459.0375214-.7473526-.6193581-1.2006912-1.526165-1.3191833-2.4895325l-.0010681-.0086632-8.4680634 3.8627357c-.9493256.5199013-1.80513 1.1946716-2.5295105 1.9949722-1.6269684 1.7904968-2.5266418 4.1214142-2.5266418 6.5399323v7.5258636c0 1.9125137 1.5503922 3.4629135 3.4629135 3.4629135h29.5828476c1.9125137 0 3.4629059-1.5503998 3.4629059-3.4629135v-7.5258636c0-2.418518-.8996201-4.7494354-2.5265884-6.5399322z" fill="#ebf0f3"/><ellipse cx="100.509" cy="50.272" fill="#fcd462" rx="7.723" ry="10.421"/><path d="m109.3292694 45.2847748c-.6144714-4.4874763-1.6088562-7.0487366-2.5184097-8.3600235-.9094772-1.3112221-1.2368927-.0917778-1.2368927-.0917778s-.3814316-2.0419464-5.8288651-1.2618332c-5.4474258.7801819-8.223259 7.8588219-8.82827 12.0188866-.3914185 2.6921387.3646774 4.9866104.9479294 6.2752571.0228729.4199104.2136536 1.8759766.1819763 2.2396317-.0928574 1.0658951.6977386 1.9999237 1.764679 2.0791473 1.042305.0773506 1.9307556-.7469292 1.9316101-1.7920876-.1204605-.6705933-.3640137-1.3143425-.7200851-1.8952293-.3689423-.6019211-.6841278-1.1447906-.6841278-1.1447906s-1.4890594-6.2699356 2.0997162-7.5433998c3.5889053-1.2734337 4.8650284-1.7117462 4.8650284-1.7117462.0195847.5344925-3.0996094 3.225872-3.0996094 3.225872 6.5846329-.9134789 8.099762-3.5654411 8.099762-3.5654411s1.0641174 3.2179222.8982468 6.2500877c-.1657486 3.032135-1.3393555 5.9685478-1.2801437 6.4312744.151619 1.1836967 1.3658371 2.0028152 2.6037827 1.6794777.8591385-.2243652 1.4548187-1.0078316 1.5222473-1.8931923.0227356-.2976761.0478439-.6055679.0778122-.924469.2814024-2.9928322-.1818468-5.5281334-.7963869-10.0156441z" fill="#3a556a"/><path d="m35.011925 49.194317h9.460316v21.882759h-9.460316z" fill="#f7be56"/><path d="m55.4698029 65.1595154c-.7272949-.8003006-1.5830994-1.4750671-2.5324287-1.9949684l-8.4651413-3.970768c-.0008812.0004654-.000927.0005112-.0018082.0010185-.0925102.984726-.5344467 1.9284058-1.2883835 2.5676842-1.948925 1.6523552-4.8856773 1.6652832-6.8498459.0375252-.7473526-.6193619-1.2006874-1.5261688-1.3191872-2.4895363l-.0010643-.0086632-8.4680595 3.8627396c-.9493313.5199013-1.8051338 1.1946678-2.5295143 1.9949684-1.6269684 1.7904968-2.5266399 4.1214142-2.5266399 6.5399399v7.525856c0 1.9125214 1.5503941 3.4629135 3.4629097 3.4629135h29.5828495c1.9125137 0 3.4629097-1.5503922 3.4629097-3.4629135v-7.525856c-.0000001-2.4185257-.8996239-4.7494431-2.5265961-6.5399399z" fill="#44c4a1"/><path d="m47.465416 50.2721748c0 5.7553253-3.4578476 10.4209366-7.72332 10.4209366s-7.7233162-4.6656113-7.7233162-10.4209366 3.8293571-11.5783539 8.0948296-11.5783539 7.3518066 5.8230286 7.3518066 11.5783539z" fill="#fcd462"/><path d="m54.7951775 51.6793251c-1.5189095 2.098053-4.8730202.8824539-4.6661263-1.6994324.0945854-1.1803665.0862389-2.525692-.1452179-4.215889-.6144943-4.4875183-1.6088562-7.0487633-2.5184402-8.3600273-.9094467-1.3112221-2.6588058-.5709991-2.6588058-.5709991s-.3813896-2.0419464-5.8288498-1.261837c-5.4474106.7801971-8.2232342 7.8588409-8.8282795 12.0188904-.125824.8654785-.1329346 1.6883011-.0652943 2.4494781.223999 2.5207214-3.0710621 3.8019905-4.5962944 1.7826195-.2725964-.3609123-.5455894-.7822151-.8164902-1.2722282 0 0 .6893291 16.5998116 11.2879524 8.8391304l-1.1352959-2.2773781c-1.0400429-2.1969528-1.2525749-3.7597084-1.2525749-3.7597084s-1.7033577-7.7374763 2.0997124-7.5433731c8.3154221.4243774 9.0792236-3.7374763 9.0792236-3.7374763s1.7738609 4.9008598 1.6841812 7.9362526c-.0901871 3.0524216-.2561035 4.4538078-.6438103 5.7214851-.320488 1.0478859-.8530273 2.0186844-1.5308762 2.879673l-.3344231.4247742c10.5986252 7.7606812 11.5806389-8.4833794 11.5806389-8.4833794-.2359351.4267654-.473461.8014068-.7109297 1.129425z" fill="#3a556a"/><path d="m76.3281326 68.8202133-6.181343 2.0748444-5.7032547-2.0748444v-16.1685715h11.8845977z" fill="#f7be56"/><path d="m90.1442947 72.7080383c-.9136734-1.0053787-1.9887772-1.8530502-3.1813889-2.5062332l-7.6544113-4.1941299-1.2513123-.6861877-.7302094.1430969c-.015152.1213455-.0317078.2523575-.0495071.391037l-7.0858612 4.8446045-6.6850395-4.8080673c-.0193901-.1509323-.0374222-.2930298-.0537491-.4238663l-.7375755-.1468048-1.2329292.6751633-7.6764488 4.2051544c-1.1925583.653183-2.2677155 1.5008545-3.1777382 2.5062332-2.0438805 2.249321-3.1740227 5.1775894-3.1740227 8.2158813v14.4396439c0 2.4032669 1.9482269 4.3515472 4.3514938 4.3515472h37.161232c2.4033203 0 4.3515472-1.9482803 4.3515472-4.3515472v-14.4396439c.0000001-3.038292-1.1302031-5.9665604-3.1740798-8.2158814z" fill="#27a2db"/><path d="m76.3281326 62.2881203-4.8927536 6.7323341 3.8896256 4.193428 2.7314377-7.8908309z" fill="#ebf0f3"/><path d="m64.4030609 62.2881203 4.892746 6.7323341-3.8896179 4.193428-2.7314415-7.8908309z" fill="#ebf0f3"/><g fill="#fcd462"><ellipse cx="79.533" cy="49.895" rx="2.348" ry="1.126" transform="matrix(.162 -.987 .987 .162 17.444 120.322)"/><ellipse cx="61.419" cy="49.895" rx="1.126" ry="2.348" transform="matrix(.997 -.072 .072 .997 -3.412 4.522)"/><path d="m79.1029816 52.3639107-.3502426-10.3384285-1.225853-3.3334084-7.1639404-1.932415-7.1639404 1.932415-1.2258492 3.3334084-.3502464 10.3384285s-.4086113 2.5121346.5253677 4.3479271 1.8095818 2.6741028 3.0354309 3.8975029c1.225853 1.2234001 2.8282547 1.6027489 5.1792374 1.6787796 2.3509827-.0760307 3.9533844-.4553795 5.1792374-1.6787796 1.2258453-1.2234001 2.1014557-2.0617104 3.0354309-3.8975029s.5253677-4.3479271.5253677-4.3479271z"/></g><path d="m69.2542648 74.0214386v15.150116h1.7851791v-15.150116c.2327957-3.7034149 1.5273056-4.749527 1.5273056-4.749527l-.7511978-.809906-1.5956268 1.9054108-1.3418579-1.9054108-1.1511993.809906s1.2946014 1.0461121 1.5273971 4.749527z" fill="#ebf0f3"/><path d="m70.8135605 40.7047043c.4274445-.0750427 2.4446869-.4166756 4.1431427 0 1.6984558.4166718 2.9252472 2.5000458 2.8750153 2.7381477-.0502243.2380981-.7964478 1.0714455-.504715 2.3214722.2917404 1.2500229.7420578 4.6060677.7420578 4.6060677s.2249069-2.9988937 1.1023712-2.1060219c.8774567.8928757.8616028 1.964325.358017 2.8571968-.5035858.8928757-.6175385 2.6917953-.6175385 2.6917953s2.6418991-3.1084671 2.6883469-4.8942184c.0464401-1.7857475 1.5573959-1.5476456-.1743011-4.2262688 0 0 1.1125336-2.1428986-.6644745-4.4643707 0 0-.4156113-2.7976723-1.5002136-4.3453217-1.0845947-1.5476494-3.4350662-3.2143478-4.6310654-3.0952988s-.9803696-.4762001-2.3013687-.4762001-1.5390854.5357246-2.4899979.7738266c-.9509048.2380981-2.493782-.7738266-4.3612289.5357246-1.8674469 1.3095474-1.7975845 1.5476494-2.5438042 2.3809967-.7462234.8333511.7892799 1.6666985-1.8734894 2.6190987s-.9554214 5.9524956-.9554214 5.9524956-1.0631485 1.6666985-.3004494 2.7976723c.3693695.547718.012455 2.7780266.4792557 3.9626732.4970856 1.2614937 1.258419 1.9419022 1.258419 1.9419022s.3050613-.6111641.2328758-1.6411972c-.1229324-1.754097-.5311813-4.2611046.4609413-3.6844635.9801178.5696678 1.2099838 3.0188026 1.2099838 3.0188026s.0523071-4.1929665.711483-5.6810913c0 0-.9118309-1.726223.5230255-3.3333969 1.4348526-1.6071739.9654388-2.7976723 2.5560837-2.083374 1.5906372.7142982 2.8625031.9587936 3.5770493.8333511z" fill="#3a556a"/></svg>